<svg width="25" height="31" viewBox="0 0 25 31" fill="none" xmlns="http://www.w3.org/2000/svg">
<path d="M6.8219 21.9617L6.55789 22.3007V22.304L5.88645 23.1612C5.88446 23.1627 5.88283 23.1647 5.88173 23.1669C5.88059 23.1692 5.88 23.1717 5.87993 23.1742L0.394383 30.1949H0.39113C0.389272 30.1966 0.388105 30.1989 0.387867 30.2014L0 30.6969V27.4733L6.55463 22.1801V22.1768L6.8219 21.9617Z" fill="url(#paint0_linear_1_626)"/>
<path d="M15.1788 11.6947L14.8594 12.4215C14.8564 12.4253 14.8541 12.4298 14.8529 12.4345L7.04667 30.1884C7.0454 30.1931 7.04319 30.1976 7.04016 30.2015L6.86741 30.5958L6.82178 30.6969V18.4448L14.8562 11.9554L15.1788 11.6947Z" fill="url(#paint1_linear_1_626)"/>
<path d="M24.1586 7.62939e-05L23.8554 1.03982L23.8522 1.04308C23.8522 1.04308 23.8554 1.04308 23.8522 1.04634C23.8518 1.04979 23.8507 1.05312 23.8489 1.05612V1.06264C23.8478 1.07051 23.8457 1.0782 23.8424 1.08545H23.8391C23.835 1.09716 23.8318 1.10914 23.8294 1.12131L15.5668 29.3704V29.3802L15.557 29.416L15.2539 30.446L15.179 30.697V7.25221L23.2296 0.749735C23.2329 0.749735 23.2362 0.746476 23.2394 0.743217L24.1586 7.62939e-05Z" fill="url(#paint2_linear_1_626)"/>
<path d="M24.1586 7.62939e-05V30.697H15.179L15.2539 30.446L15.557 29.416L15.5668 29.3802V29.3704L23.8294 1.12131C23.8318 1.10914 23.835 1.09716 23.8391 1.08545H23.8424C23.8457 1.0782 23.8478 1.07051 23.8489 1.06264V1.05612C23.8507 1.05312 23.8518 1.04979 23.8522 1.04634C23.8554 1.04308 23.8522 1.04308 23.8522 1.04308L23.8554 1.03982L24.1586 7.62939e-05Z" fill="url(#paint3_linear_1_626)"/>
<path d="M15.1788 11.6947V30.6969H6.82178L6.86741 30.5958L7.04016 30.2015C7.04319 30.1976 7.0454 30.1931 7.04667 30.1884L14.8529 12.4345C14.8541 12.4298 14.8564 12.4253 14.8594 12.4215L15.1788 11.6947Z" fill="url(#paint4_linear_1_626)"/>
<path d="M6.8219 21.9617V30.6969H0L0.387867 30.2014C0.388105 30.1989 0.389272 30.1966 0.39113 30.1949H0.394383L5.89623 23.1481L6.55789 22.3007L6.8219 21.9617Z" fill="url(#paint5_linear_1_626)"/>
<g style="mix-blend-mode:multiply" opacity="0.25">
<path d="M23.2297 0.74971C22.5974 1.33314 21.952 1.89375 21.3066 2.45763C20.6613 3.03454 20.0029 3.59514 19.3477 4.15901L17.3661 5.83437L15.4854 7.39558L15.4984 9.45552C15.5016 10.1921 15.5049 10.9255 15.5017 11.6621C15.4952 13.1288 15.4886 14.5988 15.4626 16.0688C15.4561 16.8022 15.4398 17.5388 15.4235 18.2722C15.4072 19.0055 15.3876 19.7422 15.3648 20.4755C15.342 21.2089 15.3126 21.9455 15.2833 22.6788C15.254 23.4122 15.2246 24.1488 15.179 24.8855C15.1334 24.1488 15.104 23.4155 15.0714 22.6788C15.0388 21.9422 15.0095 21.2122 14.99 20.4755C14.9704 19.7389 14.9476 19.0088 14.9345 18.2722C14.9215 17.5355 14.8987 16.8022 14.8922 16.0688C14.8726 14.8531 14.8628 13.6341 14.8596 12.4216C14.8596 12.2781 14.8563 12.138 14.8563 11.9978V11.9555L15.179 11.6947V7.25217L23.2297 0.74971Z" fill="#336EA6"/>
</g>
<g style="mix-blend-mode:multiply" opacity="0.25">
<path d="M15.1789 11.6947C15.0703 11.799 14.9627 11.9 14.8563 11.9978C14.3087 12.516 13.7513 13.0147 13.1939 13.5134C12.5225 14.1066 11.8478 14.6966 11.1666 15.2767C10.4854 15.8569 9.79766 16.4305 9.10993 17.0009C8.45479 17.5322 7.80617 18.0765 7.14452 18.6013C7.138 19.3379 7.14126 20.0778 7.1217 20.8144C7.10866 21.6065 7.09563 22.3952 7.06629 23.1873C7.04674 23.976 7.01088 24.7648 6.97503 25.5568C6.93266 26.3456 6.89029 27.1376 6.82184 27.9264C6.75665 27.1376 6.71428 26.3456 6.67191 25.5568C6.63605 24.7648 6.6002 23.976 6.58064 23.1873C6.57087 22.8939 6.56109 22.5973 6.55783 22.304V22.3007C6.55349 22.2804 6.55242 22.2594 6.55457 22.2388C6.55131 22.2193 6.55131 22.1995 6.55457 22.1801V22.1768L6.82184 21.9617V18.4448L14.8563 11.9554L15.1789 11.6947Z" fill="#336EA6"/>
</g>
<g style="mix-blend-mode:multiply" opacity="0.25">
<path d="M6.8219 21.9617C6.73389 22.0562 6.64589 22.1475 6.55463 22.2388C6.13091 22.6755 5.69415 23.0927 5.24761 23.5034C4.70981 23.9988 4.15898 24.4812 3.60162 24.9538C3.32783 25.195 3.04101 25.4199 2.7607 25.6546C2.48039 25.8893 2.19357 26.1174 1.90674 26.3423C1.61992 26.5672 1.33635 26.8019 1.04301 27.0203C0.778997 27.2158 0.518242 27.4179 0.254232 27.6102C0.231416 28.1024 0.205345 28.5946 0.166232 29.0835C0.120601 29.6213 0.0749659 30.1591 0 30.6969V27.4733L6.55463 22.1801V22.1768L6.8219 21.9617Z" fill="#336EA6"/>
</g>
<g style="mix-blend-mode:multiply" opacity="0.25">
<path d="M24.1586 3.96992V30.6969H3.20728C4.40998 30.6513 5.61595 30.6252 6.82192 30.5959H6.86759L8.4451 30.5567L11.0624 30.5046L13.6829 30.4622L15.179 30.4459H15.254L18.9208 30.4068L23.8392 30.3807C23.8327 28.2589 23.8338 26.137 23.8425 24.0152C23.8425 21.789 23.8685 19.5596 23.8848 17.3334L23.9272 13.9925L23.9859 10.6517L24.0641 7.3108C24.0869 6.19609 24.1195 5.08464 24.1586 3.96992Z" fill="#336EA6"/>
</g>
<g style="mix-blend-mode:multiply" opacity="0.25">
<path d="M6.27112 22.5257C6.24831 22.5648 6.11141 22.7995 5.88652 23.1613C5.88453 23.1629 5.88293 23.1648 5.88179 23.1671C5.88065 23.1694 5.88006 23.1718 5.88 23.1743L0.394455 30.1951L0.387939 30.2016C0.388177 30.1991 0.389341 30.1968 0.391202 30.1951C0.427055 30.1331 0.72366 29.6247 1.19627 28.9174C1.44724 28.536 1.7471 28.0993 2.07956 27.6397C2.41202 27.1801 2.77381 26.6945 3.1356 26.2121C3.51042 25.7362 3.87873 25.2571 4.24053 24.8203C4.60232 24.3836 4.94129 23.9762 5.24442 23.6339C5.80829 22.9886 6.22549 22.5681 6.27112 22.5257Z" fill="#336EA6"/>
</g>
<g style="mix-blend-mode:multiply" opacity="0.25">
<path d="M14.8528 12.4345L7.04656 30.1884C7.04529 30.1931 7.04307 30.1976 7.04004 30.2015C7.04004 30.2015 7.14434 29.9146 7.33338 29.4192C7.52895 28.9238 7.79296 28.21 8.13519 27.3658C8.47091 26.5216 8.87507 25.5373 9.31835 24.4878C9.76163 23.4382 10.244 22.3268 10.7264 21.2121C11.2186 20.1039 11.7107 18.9924 12.1899 17.9592C12.6625 16.926 13.1123 15.9645 13.5099 15.1431C13.901 14.3217 14.2465 13.6438 14.4812 13.1679C14.6875 12.7507 14.8235 12.4932 14.8528 12.4345Z" fill="#336EA6"/>
</g>
<g style="mix-blend-mode:multiply" opacity="0.25">
<path d="M23.4512 2.24578C23.6435 1.66887 23.7739 1.27774 23.8293 1.12129L15.5668 29.3704C15.6026 29.2368 15.7036 28.8196 15.8666 28.1807C16.0752 27.4017 16.3523 26.2772 16.7206 24.9409C17.0889 23.6045 17.5028 22.0433 17.9755 20.3745C18.4416 18.7057 18.9565 16.9326 19.4715 15.1562C19.993 13.3864 20.5145 11.6132 21.023 9.95748C21.5217 8.29845 22.0171 6.75676 22.4245 5.43345C22.8319 4.11014 23.2068 3.015 23.4512 2.24578Z" fill="#336EA6"/>
</g>
<g style="mix-blend-mode:multiply" opacity="0.25">
<path d="M23.849 1.06198C23.8479 1.07002 23.8456 1.07786 23.8423 1.08527H23.839C23.8417 1.07726 23.845 1.06947 23.849 1.06198Z" fill="#336EA6"/>
</g>
<g style="mix-blend-mode:screen" opacity="0.6">
<path d="M0.391606 30.195H0.395262L0.387939 30.2023C0.388207 30.1995 0.389515 30.1969 0.391606 30.195Z" fill="white"/>
</g>
<g style="mix-blend-mode:screen" opacity="0.4">
<path d="M5.89627 23.1482C5.77567 23.334 5.63226 23.5589 5.46603 23.8066C5.21506 24.1847 4.91519 24.6215 4.58273 25.081C4.25028 25.5406 3.88849 26.0263 3.52343 26.5087C3.15185 26.9878 2.78354 27.4637 2.42175 27.9004C2.05996 28.3372 1.71773 28.7446 1.41786 29.0868C0.857249 29.7289 0.4433 30.1461 0.394409 30.195L5.89627 23.1482Z" fill="white"/>
</g>
<g style="mix-blend-mode:screen" opacity="0.4">
<path d="M14.8595 12.4215C14.8595 12.4215 14.7585 12.7083 14.5662 13.2038C14.3739 13.6992 14.1066 14.413 13.7676 15.2572C13.4286 16.1014 13.0245 17.0857 12.5812 18.1352C12.1444 19.1847 11.6588 20.2962 11.1732 21.4109C10.681 22.5191 10.1888 23.6273 9.71293 24.6605C9.23706 25.6937 8.78727 26.6585 8.38962 27.4799C7.99849 28.3012 7.653 28.9792 7.42158 29.4551C7.21298 29.8723 7.07609 30.1298 7.04675 30.1884L14.853 12.4345C14.8543 12.4298 14.8565 12.4254 14.8595 12.4215Z" fill="white"/>
</g>
<g style="mix-blend-mode:screen" opacity="0.6">
<path d="M23.8491 1.06198C23.848 1.06986 23.8458 1.07754 23.8426 1.0848C23.81 1.21843 23.7056 1.63237 23.5427 2.27121C23.3373 3.05021 23.057 4.17471 22.6887 5.51106C22.3204 6.8474 21.9065 8.40865 21.4371 10.0775C20.9678 11.7463 20.4528 13.5194 19.9411 15.2957C19.4163 17.0656 18.8948 18.8387 18.3863 20.4945C17.8876 22.1535 17.3922 23.6952 16.9848 25.0185C16.5774 26.3418 16.2026 27.4369 15.9581 28.2061C15.7332 28.8776 15.5963 29.3013 15.5637 29.3958C15.5632 29.3902 15.5643 29.3845 15.567 29.3795V29.3698L23.8295 1.12065C23.8319 1.10848 23.8352 1.0965 23.8393 1.0848C23.8419 1.07695 23.8452 1.06932 23.8491 1.06198Z" fill="white"/>
</g>
<defs>
<linearGradient id="paint0_linear_1_626" x1="3.41095" y1="22.8265" x2="3.41095" y2="29.4477" gradientUnits="userSpaceOnUse">
<stop stop-color="#3E6896"/>
<stop offset="0.247" stop-color="#355881"/>
<stop offset="0.75" stop-color="#1F324E"/>
<stop offset="1" stop-color="#131D32"/>
</linearGradient>
<linearGradient id="paint1_linear_1_626" x1="11.0003" y1="14.0509" x2="11.0003" y2="26.7254" gradientUnits="userSpaceOnUse">
<stop stop-color="#9ECAE3"/>
<stop offset="0.149" stop-color="#9ECAE3"/>
<stop offset="0.375" stop-color="#70AED3"/>
<stop offset="0.65" stop-color="#4E8BB8"/>
<stop offset="0.96" stop-color="#336EA6"/>
<stop offset="1" stop-color="#233B55"/>
</linearGradient>
<linearGradient id="paint2_linear_1_626" x1="19.6688" y1="1.07447" x2="19.6688" y2="25.2943" gradientUnits="userSpaceOnUse">
<stop stop-color="#336EA6"/>
<stop offset="0.238" stop-color="#336EA6"/>
<stop offset="0.44" stop-color="#336EA6"/>
<stop offset="0.629" stop-color="#336EA6"/>
<stop offset="0.81" stop-color="#233B55"/>
<stop offset="0.959375" stop-color="#233B55"/>
<stop offset="0.9829" stop-color="#233B55"/>
<stop offset="0.983" stop-color="#009BBC"/>
<stop offset="1" stop-color="#233B55"/>
</linearGradient>
<linearGradient id="paint3_linear_1_626" x1="19.6688" y1="17.7736" x2="19.6688" y2="33.9508" gradientUnits="userSpaceOnUse">
<stop stop-color="#336EA6"/>
<stop offset="0.238" stop-color="#336EA6"/>
<stop offset="0.44" stop-color="#336EA6"/>
<stop offset="0.629" stop-color="#336EA6"/>
<stop offset="0.81" stop-color="#233B55"/>
<stop offset="0.983" stop-color="#009BBC"/>
<stop offset="1" stop-color="#233B55"/>
</linearGradient>
<linearGradient id="paint4_linear_1_626" x1="11.0003" y1="19.0865" x2="11.0003" y2="32.7683" gradientUnits="userSpaceOnUse">
<stop stop-color="#70AED3"/>
<stop offset="0.149" stop-color="#4E8BB8"/>
<stop offset="0.375" stop-color="#336EA6"/>
<stop offset="0.65" stop-color="#144774"/>
<stop offset="0.96" stop-color="#144774"/>
<stop offset="1" stop-color="#144774"/>
</linearGradient>
<linearGradient id="paint5_linear_1_626" x1="3.41095" y1="26.1371" x2="3.41095" y2="32.1993" gradientUnits="userSpaceOnUse">
<stop stop-color="#3E6896"/>
<stop offset="0.247" stop-color="#355881"/>
<stop offset="0.75" stop-color="#1F324E"/>
<stop offset="1" stop-color="#131D32"/>
</linearGradient>
</defs>
</svg>
